<?xml version="1.0" ?>
<!-- Uploaded to: SVG Repo, www.svgrepo.com, Generator: SVG Repo Mixer Tools -->
<svg width="800px" height="800px" viewBox="0 0 512 512" id="Layer_1" version="1.1" xml:space="preserve" xmlns="http://www.w3.org/2000/svg" xmlns:xlink="http://www.w3.org/1999/xlink">
<style type="text/css">
	.st0{fill:#3B4652;}
	.st1{fill:#2B79C2;}
</style>
<g>
<path class="st0" d="M426.9,96.7h-6.1v66.2h-114V96.7H205.2v66.2h-114V96.7h-6.1c-29.9,0-54.1,24.2-54.1,54.1v72.1h114.6   c2.4-3.2,4.9-6.3,7.6-9.3c26.1-29.4,63.5-46.2,102.8-46.2s76.7,16.8,102.8,46.2c2.7,3,5.2,6.1,7.6,9.3H481v-72.1   C481,120.9,456.8,96.7,426.9,96.7z"/>
<path class="st0" d="M393.5,304.9c0,75.8-61.7,137.5-137.5,137.5s-137.5-61.7-137.5-137.5c0-24,6.3-47.4,18-68H31v169.4   c0,29.9,24.2,54.1,54.1,54.1h341.8c29.9,0,54.1-24.2,54.1-54.1V236.9H375.5C387.2,257.5,393.5,280.9,393.5,304.9z"/>
<path class="st1" d="M191.2,94.6c0-11.9-4.8-22.6-12.6-30.4c-7.8-7.8-18.5-12.6-30.4-12.6c-23.7,0-43,19.3-43,43v54.4h86V94.6z"/>
<path class="st1" d="M406.8,94.6c0-11.9-4.8-22.6-12.6-30.4c-7.8-7.8-18.5-12.6-30.4-12.6c-23.8,0-43,19.3-43,43v54.4h86V94.6z"/>
<path class="st1" d="M256,428.4c68.2,0,123.5-55.3,123.5-123.5c0-31.5-11.8-60.2-31.2-82c-22.6-25.4-55.6-41.5-92.3-41.5   s-69.7,16-92.3,41.5c-19.4,21.8-31.2,50.5-31.2,82C132.5,373.1,187.8,428.4,256,428.4z M158,304.9c0-3.9,3.1-7,7-7h23.2l-14.6-14.6   c-2.7-2.7-2.7-7.2,0-9.9c2.7-2.7,7.2-2.7,9.9,0l24.5,24.5h31.1l-12.8-12.8h-25.1c-3.9,0-7-3.1-7-7c0-3.9,3.1-7,7-7h11.1l-9.1-9.1   c-2.7-2.7-2.7-7.2,0-9.9c2.7-2.7,7.2-2.7,9.9,0l9.1,9.1v-11.1c0-3.9,3.1-7,7-7c3.9,0,7,3.1,7,7v25.1L249,288v-31.1l-24.5-24.5   c-2.7-2.7-2.7-7.2,0-9.9c2.7-2.7,7.2-2.7,9.9,0l14.6,14.6v-23.2c0-3.9,3.1-7,7-7c3.9,0,7,3.1,7,7v23.2l14.6-14.6   c2.7-2.7,7.2-2.7,9.9,0c2.7,2.7,2.7,7.2,0,9.9L263,256.9V288l12.8-12.8v-25.1c0-3.9,3.1-7,7-7c3.9,0,7,3.1,7,7v11.1l9.1-9.1   c2.7-2.7,7.2-2.7,9.9,0c2.7,2.7,2.7,7.2,0,9.9l-9.1,9.1h11.1c3.9,0,7,3.1,7,7c0,3.9-3.1,7-7,7h-25.1l-12.8,12.8H304l24.5-24.5   c2.7-2.7,7.2-2.7,9.9,0c2.7,2.7,2.7,7.2,0,9.9l-14.6,14.6H347c3.9,0,7,3.1,7,7c0,3.9-3.1,7-7,7h-23.2l14.6,14.6   c2.7,2.7,2.7,7.2,0,9.9c-1.4,1.4-3.2,2.1-5,2.1c-1.8,0-3.6-0.7-5-2.1L304,311.9h-31.1l12.8,12.8h25.1c3.9,0,7,3.1,7,7   c0,3.9-3.1,7-7,7h-11.1l9.1,9.1c2.7,2.7,2.7,7.2,0,9.9c-1.4,1.4-3.2,2.1-5,2.1c-1.8,0-3.6-0.7-5-2.1l-9.1-9.1v11.1c0,3.9-3.1,7-7,7   c-3.9,0-7-3.1-7-7v-25.1L263,321.8v31.1l24.5,24.5c2.7,2.7,2.7,7.2,0,9.9c-1.4,1.4-3.2,2.1-5,2.1c-1.8,0-3.6-0.7-5-2.1L263,372.7   v23.2c0,3.9-3.1,7-7,7c-3.9,0-7-3.1-7-7v-23.2l-14.6,14.6c-2.7,2.7-7.2,2.7-9.9,0c-2.7-2.7-2.7-7.2,0-9.9l24.5-24.5v-31.1   l-12.8,12.8v25.1c0,3.9-3.1,7-7,7c-3.9,0-7-3.1-7-7v-11.1l-9.1,9.1c-1.4,1.4-3.2,2.1-5,2.1s-3.6-0.7-5-2.1c-2.7-2.7-2.7-7.2,0-9.9   l9.1-9.1h-11.1c-3.9,0-7-3.1-7-7c0-3.9,3.1-7,7-7h25.1l12.8-12.8H208l-24.5,24.5c-1.4,1.4-3.2,2.1-5,2.1s-3.6-0.7-5-2.1   c-2.7-2.7-2.7-7.2,0-9.9l14.6-14.6H165C161.1,311.9,158,308.8,158,304.9z"/>
</g>
</svg>